<?xml version="1.0" standalone="no"?>
<!DOCTYPE svg PUBLIC "-//W3C//DTD SVG 20010904//EN"
 "http://www.w3.org/TR/2001/REC-SVG-20010904/DTD/svg10.dtd">
<svg version="1.0" xmlns="http://www.w3.org/2000/svg"
 width="1733.000000pt" height="1733.000000pt" viewBox="0 0 1733.000000 1733.000000"
 preserveAspectRatio="xMidYMid meet">
<metadata>
Created by potrace 1.14, written by Peter Selinger 2001-2017
</metadata>
<g transform="translate(0.000000,1733.000000) scale(0.100000,-0.100000)"
fill="#000000" stroke="none">
<path d="M0 8665 l0 -8665 7347 0 c4346 0 7343 4 7338 9 -12 11 -143 108 -647
479 -219 161 -400 296 -402 301 -3 4 5 17 17 29 l22 20 365 -269 c201 -148
436 -321 523 -385 87 -64 161 -123 164 -131 3 -7 -3 -23 -12 -33 -18 -20 -9
-20 1298 -20 l1317 0 0 8665 0 8665 -8665 0 -8665 0 0 -8665z m6998 8210 c71
-21 163 -86 439 -306 378 -302 631 -461 913 -573 224 -88 469 -128 924 -148
397 -17 939 13 1196 67 435 91 788 269 1401 707 210 150 345 233 413 253 139
42 232 -2 293 -140 27 -62 24 -307 -6 -435 -73 -314 -213 -610 -399 -844 l-55
-69 -2 -171 c-2 -190 -30 -380 -95 -651 -5 -22 -18 -78 -29 -125 -21 -89 -60
-255 -111 -462 -16 -68 -52 -222 -80 -343 -78 -338 -124 -474 -226 -679 -125
-247 -294 -455 -499 -612 -131 -101 -350 -227 -672 -388 -486 -244 -731 -320
-941 -295 -198 25 -471 126 -817 303 -302 155 -618 348 -780 477 -98 77 -210
202 -286 317 -235 355 -366 819 -436 1542 -26 268 -23 736 4 910 l20 125 -52
70 c-258 343 -418 774 -418 1125 -1 275 110 401 301 345z m-268 -3705 c29 -41
74 -140 165 -365 163 -405 259 -569 435 -746 231 -233 476 -400 1170 -796 212
-121 419 -237 460 -258 251 -126 532 -177 780 -141 237 35 441 125 813 359
379 239 569 342 713 387 81 25 114 20 148 -21 123 -146 11 -683 -327 -1574
-35 -93 -86 -226 -112 -295 -26 -69 -54 -133 -64 -142 -20 -22 -132 -27 -317
-14 -116 7 -132 7 -147 -9 -63 -62 70 -271 218 -342 38 -18 75 -33 82 -33 21
0 30 30 -101 -315 -32 -82 -68 -177 -81 -210 -13 -33 -58 -150 -100 -260 -201
-523 -497 -1249 -519 -1272 -9 -10 -27 -10 -76 -2 -105 17 -150 -1 -150 -60 0
-32 44 -124 79 -164 25 -28 31 -42 25 -59 -9 -29 -142 -313 -205 -439 l-48
-97 -58 -10 c-60 -11 -271 -9 -381 4 -53 6 -65 4 -82 -11 -28 -25 -26 -81 6
-141 57 -108 147 -190 242 -221 28 -9 52 -19 52 -23 0 -9 -120 -206 -194 -317
l-68 -103 -91 -1 c-51 0 -123 -4 -162 -8 -40 -5 -137 -4 -227 2 -147 10 -159
9 -178 -8 -28 -25 -25 -56 12 -134 59 -124 190 -226 305 -238 37 -4 53 -10 49
-18 -2 -7 -42 -61 -87 -121 -608 -800 -1339 -1549 -2129 -2183 -139 -112 -165
-129 -171 -114 -4 10 -8 64 -8 120 l-1 102 73 128 c105 183 289 553 396 798
51 116 99 224 107 242 8 17 14 34 14 38 0 3 8 25 19 48 10 23 30 74 45 112 15
39 31 79 36 90 5 11 32 83 60 160 28 77 53 147 57 155 64 160 298 870 388
1180 8 25 23 77 35 115 12 39 36 122 55 185 19 63 39 131 44 150 16 53 71 248
88 310 8 30 30 107 48 170 19 64 38 133 44 155 5 22 28 108 51 190 23 83 51
183 61 222 36 134 61 228 72 270 l10 42 32 -28 c48 -42 140 -83 197 -89 106
-10 218 48 309 161 48 60 69 111 69 170 0 57 -17 61 -210 53 -156 -7 -321 -8
-327 -2 -2 1 4 36 12 77 40 192 56 282 70 379 8 58 20 139 26 180 16 112 23
528 10 645 -20 185 -31 260 -52 355 -49 225 -122 435 -219 635 -128 263 -247
448 -455 704 -273 337 -691 663 -1040 812 -38 17 -79 34 -90 39 -103 47 -367
108 -472 109 -58 1 -55 17 14 66 84 59 289 268 356 361 130 184 197 350 247
609 52 268 71 325 110 325 10 0 28 -13 40 -30z m-1868 -1845 c20 -8 95 -22
169 -31 147 -19 178 -33 179 -77 0 -32 -14 -57 -85 -147 -27 -36 -59 -77 -70
-92 -63 -84 -146 -186 -166 -204 -83 -75 -161 -2 -204 188 -9 40 -21 81 -26
90 -5 10 -9 36 -9 59 0 34 8 51 42 93 53 65 120 136 129 136 4 0 22 -7 41 -15z
m1564 -250 c22 -9 48 -20 59 -24 28 -12 116 -29 214 -41 47 -5 95 -17 108 -25
27 -18 31 -66 8 -85 -8 -7 -15 -17 -15 -22 0 -5 -26 -43 -57 -84 -32 -41 -67
-87 -78 -102 -44 -59 -151 -188 -170 -204 -34 -30 -79 -23 -114 17 -17 20 -31
42 -31 49 0 8 -6 19 -14 25 -8 6 -16 26 -19 44 -3 18 -13 57 -22 87 -9 30 -20
91 -26 135 -24 200 31 280 157 230z m-2196 -976 c75 -9 113 -18 133 -33 51
-37 44 -50 -186 -348 -101 -132 -140 -168 -177 -168 -27 0 -87 58 -96 93 -6
28 22 114 108 332 22 55 44 111 49 124 8 19 15 22 37 18 15 -3 74 -11 132 -18z
m1130 -186 c19 -9 43 -20 54 -25 10 -6 81 -18 157 -27 243 -31 245 -43 43
-304 -54 -70 -112 -146 -127 -167 -56 -79 -117 -102 -161 -61 -26 25 -65 94
-77 136 -44 164 -49 194 -49 285 0 113 12 155 49 175 28 15 57 12 111 -12z
m1598 -389 c21 -9 53 -22 72 -31 19 -8 93 -22 165 -31 189 -23 218 -51 153
-149 -17 -26 -50 -70 -73 -98 -23 -27 -50 -63 -61 -80 -33 -53 -145 -184 -174
-205 -48 -34 -82 -22 -129 47 -62 91 -118 374 -92 469 24 88 65 111 139 78z
m-2753 -713 c17 -6 39 -15 50 -20 31 -13 113 -29 185 -36 134 -13 179 -40 159
-93 -17 -43 -231 -328 -306 -404 -56 -58 -95 -64 -134 -20 -93 104 -158 445
-105 545 31 56 62 62 151 28z m1597 -447 c18 -9 46 -23 62 -31 17 -8 68 -19
115 -24 135 -15 205 -29 224 -46 36 -33 20 -67 -110 -239 -158 -208 -220 -274
-262 -274 -56 0 -123 116 -152 260 -4 25 -13 63 -18 85 -16 64 -13 181 5 218
36 70 70 83 136 51z m1500 -370 c24 -8 52 -21 63 -27 21 -11 57 -18 210 -40
176 -25 183 -45 65 -202 -45 -59 -85 -112 -90 -118 -5 -7 -30 -39 -56 -72 -74
-95 -136 -155 -160 -155 -50 0 -118 101 -145 215 -6 28 -18 71 -25 97 -8 26
-14 91 -14 145 0 95 1 100 31 136 34 42 56 45 121 21z m-3808 -504 c55 -21
119 -36 205 -47 172 -21 200 -47 146 -133 -24 -39 -112 -155 -205 -272 -25
-32 -55 -70 -67 -86 -12 -16 -39 -37 -58 -46 -34 -17 -38 -17 -63 0 -47 30
-77 83 -105 184 -39 137 -40 157 -17 289 11 69 23 128 26 133 10 16 60 8 138
-22z m1326 -300 c62 -25 161 -47 268 -59 135 -16 152 -53 74 -163 -178 -251
-290 -378 -332 -378 -66 1 -116 88 -165 288 -21 90 -20 260 2 292 39 56 57 59
153 20z m1524 -385 c15 -8 36 -15 45 -15 9 0 25 -7 35 -15 11 -8 31 -15 45
-15 14 0 58 -7 96 -15 39 -8 87 -15 108 -15 21 0 51 -7 67 -15 61 -31 42 -69
-162 -334 -109 -140 -161 -191 -195 -191 -46 0 -103 85 -135 200 -9 30 -21 75
-28 100 -7 25 -15 90 -17 145 -4 99 -4 101 26 143 35 47 64 54 115 27z m-2688
-670 c16 -8 36 -15 45 -15 8 0 20 -5 27 -12 11 -11 91 -27 241 -48 112 -15
137 -48 92 -120 -18 -30 -160 -220 -176 -236 -6 -7 -36 -44 -65 -82 -93 -121
-145 -131 -205 -38 -19 29 -37 66 -40 82 -4 16 -12 45 -20 64 -22 59 -39 171
-39 255 1 139 53 195 140 150z m1508 -405 c5 -5 17 -10 26 -10 10 0 30 -6 46
-14 16 -7 85 -21 154 -30 196 -27 222 -51 160 -143 -16 -24 -30 -48 -30 -54 0
-5 -4 -9 -8 -9 -5 0 -51 -57 -104 -127 -114 -152 -181 -223 -212 -223 -41 0
-126 110 -126 162 0 8 -4 18 -9 24 -16 17 -44 169 -48 262 -4 81 -2 97 17 127
32 51 55 65 93 54 17 -5 35 -13 41 -19z m1426 -311 c54 -22 112 -35 205 -47
103 -13 137 -22 163 -40 25 -19 31 -29 26 -45 -7 -21 -63 -118 -74 -127 -3 -3
-37 -45 -75 -95 -195 -257 -227 -281 -292 -212 -36 38 -48 60 -74 135 -48 142
-67 338 -39 392 19 37 52 70 69 70 9 0 50 -14 91 -31z m-3502 -539 c67 -36
100 -45 260 -64 200 -25 201 -48 20 -280 -46 -59 -104 -134 -129 -167 -76
-100 -133 -123 -179 -74 -23 24 -24 32 -22 133 3 185 14 447 19 455 5 9 10 9
31 -3z m1315 -319 c77 -30 150 -46 262 -57 39 -4 80 -14 93 -22 43 -28 23 -89
-67 -202 -20 -25 -39 -49 -43 -55 -4 -5 -27 -34 -50 -64 -24 -30 -62 -79 -86
-110 -80 -105 -126 -114 -185 -36 -81 105 -140 451 -91 525 40 59 64 62 167
21z m1307 -412 c30 -12 67 -28 82 -35 14 -8 39 -14 55 -14 15 0 75 -9 133 -18
198 -34 198 -38 7 -292 -117 -155 -214 -260 -241 -260 -26 0 -86 60 -109 110
-8 19 -23 64 -32 100 -9 36 -23 85 -31 110 -8 26 -14 85 -14 138 0 81 3 98 22
125 25 35 48 56 63 57 5 0 34 -10 65 -21z m-2622 -791 c12 -12 44 -18 212 -41
52 -7 105 -19 118 -25 44 -25 25 -81 -67 -198 -31 -39 -83 -106 -116 -149 -71
-93 -134 -165 -146 -165 -4 0 -10 19 -13 43 -9 64 -34 531 -29 540 6 11 27 9
41 -5z m1426 -307 c12 -18 145 -52 258 -65 124 -15 167 -33 168 -72 0 -23 -52
-106 -127 -200 -26 -34 -68 -88 -92 -120 -63 -83 -122 -144 -150 -155 -39 -16
-85 21 -120 96 -49 108 -72 209 -78 342 -4 96 -3 104 21 142 24 38 30 41 71
41 24 0 46 -4 49 -9z m4332 -103 c17 -18 51 -67 77 -108 51 -84 340 -408 414
-465 76 -58 178 -102 338 -145 158 -43 273 -90 523 -214 219 -109 289 -168
327 -277 42 -119 -7 -302 -113 -421 -47 -52 -79 -64 -68 -25 36 134 34 276 -7
359 -36 74 -141 186 -227 243 -123 82 -329 165 -448 181 -43 5 -53 3 -72 -16
-20 -20 -22 -30 -17 -81 8 -88 47 -152 133 -215 105 -77 122 -128 88 -258 -20
-79 -55 -154 -103 -225 -49 -71 -78 -101 -96 -101 -13 0 -15 29 -13 188 1 119
-3 205 -11 237 -23 95 -72 175 -167 275 -49 52 -117 129 -151 171 -113 139
-288 282 -477 389 -173 98 -236 159 -222 216 4 14 36 56 71 94 35 37 78 96 95
131 55 110 76 121 126 67z m-2790 -209 c27 -11 58 -24 69 -29 11 -5 40 -12 65
-16 91 -14 95 2 -62 -237 -79 -119 -147 -216 -151 -214 -12 4 -44 100 -63 192
-24 117 -23 220 4 272 31 60 58 66 138 32z m7913 -49 c1 -10 -265 -147 -784
-405 -432 -214 -784 -391 -782 -395 31 -53 39 -90 34 -152 l-6 -68 1580 0
1579 0 0 -35 0 -35 -1642 -5 c-2367 -8 -2278 -9 -2278 20 0 15 34 32 145 74
167 62 214 83 331 151 67 39 123 70 126 70 3 0 381 186 839 414 741 367 835
412 846 397 7 -9 12 -23 12 -31z m-6249 -50 c10 -5 47 -56 81 -112 76 -122
171 -222 254 -265 35 -18 140 -53 250 -82 218 -58 273 -78 370 -131 213 -118
313 -271 260 -395 -9 -22 -32 -81 -50 -132 -18 -50 -44 -112 -59 -137 -33 -57
-89 -116 -109 -116 -21 0 -24 27 -14 140 11 123 2 229 -24 310 -19 57 -32 75
-108 150 -102 101 -158 132 -336 191 -188 62 -221 57 -211 -28 8 -66 58 -152
126 -218 101 -98 115 -125 114 -225 -1 -94 -27 -179 -85 -274 -40 -67 -108
-136 -132 -136 -19 0 -19 5 -11 98 12 130 10 267 -6 322 -20 72 -70 165 -112
209 -78 82 -216 123 -287 87 -47 -25 -62 -71 -71 -220 -8 -123 -10 -132 -49
-212 -40 -80 -92 -139 -115 -131 -8 3 -10 64 -6 218 7 297 6 457 -4 571 -13
139 -2 170 94 272 43 44 98 113 124 153 25 40 56 79 68 88 26 18 24 18 48 5z
m-4183 -384 c71 -35 135 -51 271 -67 112 -13 152 -33 152 -72 0 -26 -50 -101
-179 -269 -104 -137 -175 -208 -206 -208 -39 0 -125 114 -125 165 0 12 -5 26
-12 33 -6 6 -15 33 -19 59 -4 27 -12 75 -19 108 -7 33 -10 90 -7 127 8 115 64
163 144 124z m1420 -400 c31 -16 68 -31 95 -40 10 -3 73 -12 140 -21 125 -17
178 -38 178 -72 0 -21 -33 -74 -99 -160 -31 -39 -94 -121 -141 -181 -75 -97
-125 -142 -159 -142 -15 0 -58 45 -84 86 -42 69 -87 257 -87 369 0 94 7 122
38 158 19 21 79 23 119 3z m-1716 -218 c4 -15 4 -29 1 -32 -3 -3 -342 -6 -754
-6 l-748 0 0 35 0 35 747 -2 747 -3 7 -27z m3747 0 l-3 -33 -715 -3 c-393 -1
-721 0 -728 3 -10 4 -8 12 10 34 l23 30 708 0 708 1 -3 -32z m-3163 -743 c68
-27 137 -41 245 -51 100 -9 145 -37 135 -82 -11 -47 -212 -311 -237 -312 -57
-1 -215 107 -295 203 -31 37 -33 43 -33 122 0 81 1 85 34 120 39 41 48 41 151
0z"/>
<path d="M12289 16666 c-55 -29 -217 -138 -469 -318 -49 -35 -227 -154 -320
-213 -146 -94 -550 -295 -592 -295 -6 0 -24 -7 -41 -15 -62 -28 -314 -94 -437
-115 -591 -96 -1561 -75 -1980 44 -134 38 -371 142 -520 229 -139 81 -441 284
-470 317 -3 3 -43 36 -90 73 -47 38 -92 74 -100 80 -166 134 -216 172 -265
202 -76 45 -91 45 -104 -2 -31 -110 2 -359 75 -573 36 -105 138 -321 195 -414
48 -79 162 -226 225 -293 202 -213 381 -315 729 -418 50 -15 99 -30 110 -35
11 -4 61 -22 111 -40 280 -97 520 -266 789 -554 124 -133 211 -207 281 -237
39 -18 61 -21 123 -17 106 7 151 35 286 177 298 314 394 399 560 498 173 103
349 165 675 237 167 37 279 71 357 107 24 10 45 19 47 19 9 0 130 72 201 119
143 95 367 341 477 526 156 262 246 524 255 745 5 131 -3 193 -28 197 -8 2
-44 -13 -80 -31z"/>
<path d="M8305 14326 c-85 -27 -162 -97 -204 -186 -24 -51 -26 -65 -26 -200 0
-125 3 -155 24 -220 57 -182 168 -324 286 -370 162 -63 339 -18 476 121 64 64
99 122 130 215 41 120 16 273 -65 398 -72 111 -221 217 -346 245 -62 14 -226
12 -275 -3z"/>
<path d="M10525 14329 c-22 -5 -77 -28 -122 -51 -110 -55 -204 -150 -259 -263
-39 -79 -39 -81 -39 -200 0 -119 0 -120 39 -199 90 -184 285 -308 459 -293
192 16 328 151 408 407 20 63 24 96 24 205 0 164 -20 228 -97 304 -79 79 -122
95 -258 98 -63 1 -133 -2 -155 -8z"/>
<path d="M9455 13339 c-69 -61 -132 -203 -159 -358 -32 -185 -16 -312 81 -671
71 -265 103 -330 155 -316 43 10 101 169 171 466 14 58 31 130 38 160 21 83
18 329 -3 411 -41 150 -106 278 -162 317 -45 30 -79 28 -121 -9z"/>
<path d="M8431 10371 c-47 -47 4 -166 115 -270 63 -59 87 -74 141 -91 36 -11
79 -20 97 -20 48 0 120 25 179 63 135 87 224 276 152 323 -22 14 -41 16 -138
9 -151 -10 -355 -11 -448 -1 -70 8 -78 7 -98 -13z"/>
<path d="M9746 10378 c-85 -65 88 -317 251 -368 36 -11 79 -20 97 -20 48 0
120 25 179 63 135 87 224 276 152 323 -22 14 -41 16 -138 9 -148 -10 -354 -11
-447 -1 -59 6 -79 5 -94 -6z"/>
<path d="M9150 9537 c-87 -44 48 -276 206 -353 50 -24 71 -29 139 -29 72 0 86
3 143 34 111 60 212 198 212 288 0 38 -4 44 -32 59 -27 14 -47 15 -133 8 -122
-11 -356 -12 -445 -2 -46 6 -72 4 -90 -5z"/>
<path d="M8427 8753 c-56 -63 72 -266 213 -340 49 -25 66 -28 145 -28 110 0
160 22 244 106 70 70 111 148 111 211 0 69 -12 73 -190 63 -193 -11 -264 -11
-395 -1 -102 8 -111 7 -128 -11z"/>
<path d="M9738 8753 c-26 -29 -22 -62 17 -139 40 -82 117 -160 195 -201 49
-25 66 -28 145 -28 110 0 160 22 244 106 70 70 111 148 111 211 0 69 -12 73
-190 63 -193 -11 -264 -11 -395 -1 -102 8 -111 7 -127 -11z"/>
<path d="M9635 7907 c-38 -4 -157 -5 -263 -2 -141 4 -198 3 -208 -6 -8 -6 -14
-28 -14 -48 0 -89 102 -223 220 -289 60 -34 71 -37 146 -37 69 0 89 4 140 30
32 16 82 52 110 80 56 55 114 164 114 213 0 31 -21 61 -43 63 -64 4 -144 3
-202 -4z"/>
<path d="M8461 7114 c-36 -26 -26 -91 28 -176 103 -164 269 -240 413 -189 138
48 253 177 265 297 5 51 5 53 -28 69 -29 15 -47 17 -139 9 -134 -11 -355 -11
-445 -1 -58 7 -74 5 -94 -9z"/>
<path d="M7788 6253 c-10 -11 -18 -31 -18 -45 0 -83 123 -242 228 -294 50 -26
68 -29 147 -29 111 0 150 19 242 111 72 71 113 148 113 211 0 63 -14 68 -195
58 -200 -11 -239 -11 -380 -1 -112 8 -121 7 -137 -11z"/>
</g>
</svg>
