<svg id="No_Paperclip" data-name="No Paperclip" xmlns="http://www.w3.org/2000/svg" width="2248" height="982" viewBox="0 0 2248 982">
  <defs>
    <style>
      .cls-1 {
        fill-rule: evenodd;
      }
    </style>
  </defs>
  <path id="US_A_I" data-name="US   A I" class="cls-1" d="M516.915,197.938H383.2q-11.785,0-11.773,7.542,0,9.224,16.609,9.224,28.244,0,34.058,1.682,17.444,4.2,17.45,22.64v200.4q0,162.666-2.523,184.472Q420.193,768.958,292.38,768.945q-69.811,0-105.119-40.3t-35.32-151.162V276.869q0-44.505.841-47.856,0.828-8.4,9.25-11.76,4.2-1.675,15.978-1.682,28.579-.828,33.639-1.682c3.363-.552,5.045-2.8,5.045-6.714q0-9.225-14.3-9.237H13.184q-11.786,0-11.773,7.568,0,6.741,14.48,8.41,26.391,0,31.51.841,17.9,3.369,20.446,18.5V570.48q0,105.96,32.8,152.212,49.61,68.966,171.554,68.959,101.744,0,147.588-55.845,45.825-55.838,45.832-178.44v-314.9q0-13.443,1.681-19.316,4.2-10.92,25.229-10.919H521.12q15.136,0,15.137-6.767,0-7.53-19.342-7.529h0Zm386.826,326.71q-34.493-40.781-113.529-80.311-67.29-33.625-87.459-52.139-36.168-32.8-36.161-86.618,0-46.24,24.808-73.163,24.795-26.9,66.856-26.911,42.888,0,77.368,33.218t43.729,82.834q3.351,19.355,12.614,19.342,8.4,0,7.569-9.251L898.7,318.194q-4.218-23.534-4.205-63.913a401.335,401.335,0,0,1,2.523-48.775,45.24,45.24,0,0,0,.841-10.091q0-10.092-8.41-10.092-7.567,0-9.25,8.41-2.523,14.308-5.466,17.66-2.957,3.37-12.194,3.364-8.416,0-26.07-6.728-50.457-19.335-79.049-19.342-68.966,0-113.949,45.411-45,45.412-44.991,115.211,0,54.675,31.115,91.664,31.1,37.015,111.006,76.527,66.421,32.8,93.766,66.015,27.318,33.23,27.331,80.311,0,52.98-28.172,81.993t-79.47,29.012q-120.27,0-142.121-151.174-3.37-20.38-11.773-20.38-10.092,0-10.092,12.614a84.9,84.9,0,0,0,.841,13.456q1.676,38.689,1.682,47.093,0,43.735-6.728,95.028a44.615,44.615,0,0,0-.841,10.091q0,10.092,8.41,10.092,10.092,0,10.932-12.037,2.523-23.277,12.615-23.284,8.4,0,25.228,7.569,63.072,27.751,108.483,27.752,77.361,0,132.45-50.878,55.07-50.871,55.083-123.2Q938.22,565.44,903.741,524.648ZM1954.05,768.1q-32.82-.867-43.32-6.058-10.53-5.183-17.24-24.216-120.27-327.972-150.53-409.545-38.67-104.265-49.6-137.075-1.695-5.046-4.21-5.046c-2.81,0-5.04,3.088-6.73,9.251l-3.6,15.347a97.417,97.417,0,0,0-7.83,22.325q-67.92,188.169-176.1,498.685-6.735,20.262-18.5,27.423-11.79,7.174-38.26,8.015-26.49.847-26.49,8.436,0,7.608,11.77,7.6a56.138,56.138,0,0,0,10.93-1.406,120,120,0,0,1,26.07-2.8q13.44,0,26.07.841,51.285,3.351,89.98,3.364,21.87,0,21.87-8.41,0-7.568-24.39-8.409-39.54-2.523-42.05-3.364-10.08-2.523-10.09-14.3,0-20.182,50.41-154.736h179.76q29.415,89.228,36.97,115.316l4.31,11.734,6.87,22.246a49.491,49.491,0,0,1,1.72,6.583q0,14.015-74,14.835-22.71,0-22.71,9.7,0,8.811,16.82,8.8a90.667,90.667,0,0,0,12.61-.841l106.8-3.364,106.81,3.364a124.436,124.436,0,0,0,15.13.841q12.615,0,12.62-7.174,0-7.155-21.87-7.963h0ZM1577.07,574.685q49.785-148.849,85.25-241.906l40.41,116.564q31.665,87.492,45.37,125.342H1577.07Zm659.11,192.578q-45.405-1.676-54.66-10.933-4.215-4.2-4.21-52.139V255.122q0-28.58,4.68-35.32,4.7-6.72,25.98-7.568,37.44-1.577,37.46-7.963,0-7.174-13.56-7.174l-32.21.841q-36.435-.828-49.14-0.841H2036.11q-10.17,0-10.17,6.675,0,5.2,16.18,5.939,41.715,1.695,46.84,10.118,4.26,5.065,4.26,46.4V709.907q0,41.352-5.89,48.513t-39.52,8q-21.885.847-21.87,7.569,0,7.567,10.93,7.568,22.71,0,33.64-.841,21.015-1.675,42.05-1.682,109.3,0,114.37,2.523h8.41q10.1,0,10.09-7.148t-9.25-7.148h0Z"/>
  <rect x="1200.38" y="-5.656" width="23.24" height="987.312"/>
</svg>
